<svg xmlns="http://www.w3.org/2000/svg" viewBox="0 0 760 280" role="img" aria-labelledby="title desc">
  <title id="title">MUPA</title>
  <desc id="desc">Mugla Planlama Ajansi logo</desc>
  <g fill="none" fill-rule="evenodd">
    <g transform="translate(72 42)" stroke="#A47B3C" stroke-linecap="round" stroke-linejoin="round">
      <path d="M16 126V68c0-32 23-52 56-52h45c33 0 56 20 56 52v58" stroke-width="18"/>
      <path d="M60 126V72c0-12 8-20 21-20h29c13 0 21 8 21 20v54" stroke-width="15"/>
      <path d="M108 126V52" stroke-width="15"/>
      <path d="M174 126V16" stroke-width="18"/>
      <path d="M10 138h52M62 138h52M114 138h52M166 138h52" stroke-width="18"/>
    </g>
    <text x="355" y="134" fill="#151515" font-family="Georgia, 'Times New Roman', serif" font-size="88" font-weight="700" letter-spacing="14">MUPA</text>
    <text x="357" y="178" fill="#4A4A4A" font-family="Arial, Helvetica, sans-serif" font-size="24" font-weight="700" letter-spacing="3">MUGLA PLANLAMA AJANSI</text>
    <path d="M354 198h300" stroke="#A47B3C" stroke-width="5" stroke-linecap="round"/>
  </g>
</svg>
